<svg width="1600" height="760" viewBox="0 0 1600 760" fill="none" xmlns="http://www.w3.org/2000/svg">
  <defs>
    <linearGradient id="metal" x1="118" y1="342" x2="850" y2="526" gradientUnits="userSpaceOnUse">
      <stop stop-color="#FFFFFF"/>
      <stop offset="0.22" stop-color="#DDEBFF"/>
      <stop offset="0.52" stop-color="#FFFFFF"/>
      <stop offset="0.78" stop-color="#8FA7D8"/>
      <stop offset="1" stop-color="#FFFFFF"/>
    </linearGradient>
    <linearGradient id="five" x1="938" y1="235" x2="1364" y2="612" gradientUnits="userSpaceOnUse">
      <stop stop-color="#00F2FF"/>
      <stop offset="0.38" stop-color="#1979FF"/>
      <stop offset="0.68" stop-color="#D300FF"/>
      <stop offset="1" stop-color="#FF3CC9"/>
    </linearGradient>
    <linearGradient id="blade" x1="694" y1="70" x2="912" y2="330" gradientUnits="userSpaceOnUse">
      <stop stop-color="#00F2FF"/>
      <stop offset="0.52" stop-color="#246CFF"/>
      <stop offset="1" stop-color="#F000FF"/>
    </linearGradient>
    <linearGradient id="speedline" x1="1025" y1="500" x2="1398" y2="500" gradientUnits="userSpaceOnUse">
      <stop stop-color="#00E5FF"/>
      <stop offset="1" stop-color="#FF3CC9"/>
    </linearGradient>
    <filter id="neon" x="-20%" y="-35%" width="140%" height="170%" color-interpolation-filters="sRGB">
      <feDropShadow dx="0" dy="0" stdDeviation="11" flood-color="#00D8FF" flood-opacity="0.68"/>
      <feDropShadow dx="0" dy="0" stdDeviation="17" flood-color="#D900FF" flood-opacity="0.46"/>
      <feDropShadow dx="0" dy="20" stdDeviation="20" flood-color="#00030B" flood-opacity="0.82"/>
    </filter>
    <filter id="metal-shadow" x="-10%" y="-25%" width="120%" height="150%" color-interpolation-filters="sRGB">
      <feDropShadow dx="0" dy="9" stdDeviation="5" flood-color="#001B44" flood-opacity="0.82"/>
      <feDropShadow dx="0" dy="0" stdDeviation="5" flood-color="#00D8FF" flood-opacity="0.36"/>
    </filter>
    <filter id="blade-glow" x="-35%" y="-35%" width="170%" height="170%" color-interpolation-filters="sRGB">
      <feDropShadow dx="0" dy="0" stdDeviation="13" flood-color="#00E5FF" flood-opacity="0.72"/>
      <feDropShadow dx="0" dy="0" stdDeviation="13" flood-color="#E000FF" flood-opacity="0.56"/>
    </filter>
  </defs>
  <rect width="1600" height="760" fill="#020511"/>
  <path d="M95 472L205 338H886L932 382L888 434H244L178 514H96L95 472Z" fill="#071229" stroke="#00D8FF" stroke-width="7" filter="url(#neon)"/>
  <path d="M834 374H1300L1376 426L1324 562H915L974 494H1263L1290 439H781L834 374Z" fill="#080A1C" stroke="#DB20FF" stroke-width="7" filter="url(#neon)"/>

  <g filter="url(#blade-glow)">
    <path d="M801 74L856 302L822 280L804 348L783 280L746 302L801 74Z" fill="url(#blade)"/>
    <path d="M705 328C650 288 630 228 651 164" stroke="#00D8FF" stroke-width="10" stroke-linecap="square" stroke-opacity="0.7"/>
    <path d="M897 328C952 288 972 228 951 164" stroke="#D900FF" stroke-width="10" stroke-linecap="square" stroke-opacity="0.7"/>
    <path d="M666 244L723 282L754 352L682 310L666 244Z" fill="#071229" stroke="#00E5FF" stroke-width="5"/>
    <path d="M936 244L879 282L848 352L920 310L936 244Z" fill="#071229" stroke="#E000FF" stroke-width="5"/>
  </g>

  <g filter="url(#metal-shadow)">
    <path d="M210 406H322L430 520L478 406H580L492 616H390L280 498L231 616H129L210 406Z" fill="url(#metal)" stroke="#5B78BB" stroke-width="4"/>
    <path d="M606 406H730L774 470L864 406H991L833 512L905 616H781L739 552L650 616H520L682 510L606 406Z" fill="url(#metal)" stroke="#5B78BB" stroke-width="4"/>
    <path d="M905 406H1204L1171 486H1070L1017 616H911L965 486H872L905 406Z" fill="url(#metal)" stroke="#5B78BB" stroke-width="4"/>
  </g>

  <g filter="url(#neon)">
    <path d="M1129 292H1448L1395 378H1214L1194 424H1347L1406 482L1358 592L1264 646H1000L1049 558H1252L1284 540L1301 500H1119L1074 440L1129 292Z" fill="url(#five)" stroke="#84F6FF" stroke-width="6"/>
    <path d="M1070 612L1272 540L1398 548" stroke="url(#speedline)" stroke-width="14" stroke-linecap="square"/>
    <path d="M1196 330L1458 260" stroke="#00E5FF" stroke-width="4" stroke-linecap="square" stroke-opacity="0.9"/>
    <path d="M1312 646L1456 604" stroke="#D900FF" stroke-width="4" stroke-linecap="square" stroke-opacity="0.9"/>
  </g>

  <path d="M315 681H1285" stroke="url(#blade)" stroke-width="3" stroke-opacity="0.65"/>
  <text x="378" y="650" fill="#36DFFF" font-family="Inter, Arial, sans-serif" font-size="34" font-weight="900" letter-spacing="20">TEAM TOOLS FOR THE NEXT FIVE</text>
</svg>
