<svg width="512" height="512" viewBox="0 0 512 512" fill="none" xmlns="http://www.w3.org/2000/svg">
  <defs>
    <linearGradient id="ring" x1="93" y1="98" x2="420" y2="414" gradientUnits="userSpaceOnUse">
      <stop stop-color="#FED7AA"/>
      <stop offset="0.36" stop-color="#F97316"/>
      <stop offset="0.72" stop-color="#E879F9"/>
      <stop offset="1" stop-color="#22D3EE"/>
    </linearGradient>
    <linearGradient id="letters" x1="138" y1="166" x2="367" y2="350" gradientUnits="userSpaceOnUse">
      <stop stop-color="#FFFFFF"/>
      <stop offset="0.5" stop-color="#FFE7C2"/>
      <stop offset="1" stop-color="#8EEBFF"/>
    </linearGradient>
    <filter id="glow" x="-24%" y="-24%" width="148%" height="148%" color-interpolation-filters="sRGB">
      <feDropShadow dx="0" dy="18" stdDeviation="22" flood-color="#020617" flood-opacity="0.5"/>
      <feDropShadow dx="0" dy="0" stdDeviation="18" flood-color="#F97316" flood-opacity="0.42"/>
    </filter>
  </defs>
  <path d="M86 276C68 199 111 117 189 87C267 57 364 84 414 151C464 218 455 319 394 378C333 437 232 452 157 409C111 383 97 326 86 276Z" fill="url(#ring)" filter="url(#glow)"/>
  <path d="M116 267C102 207 136 143 197 120C258 96 334 116 373 169C412 222 405 300 357 346C309 392 230 404 171 371C135 351 125 306 116 267Z" fill="#070B16"/>
  <path d="M116 286C166 311 236 304 290 274C331 252 365 246 404 258" stroke="#22D3EE" stroke-width="18" stroke-linecap="round" stroke-opacity="0.62"/>
  <path d="M100 312C154 354 246 365 333 319" stroke="#FB923C" stroke-width="14" stroke-linecap="round" stroke-opacity="0.78"/>
  <path d="M127 169C167 118 239 100 305 118C351 131 383 161 398 200" stroke="white" stroke-width="13" stroke-linecap="round" stroke-opacity="0.18"/>

  <g transform="skewX(-10)">
    <text x="298" y="327" text-anchor="middle"
      font-family="Arial Black, Arial Rounded MT Bold, Inter, Arial, sans-serif"
      font-size="174" font-weight="900" letter-spacing="-19"
      fill="url(#letters)">RB</text>
  </g>
</svg>
