<svg width="1860" height="980" viewBox="0 0 1860 980" fill="none" xmlns="http://www.w3.org/2000/svg">
  <defs>
    <linearGradient id="page" x1="0" y1="0" x2="1860" y2="980" gradientUnits="userSpaceOnUse">
      <stop stop-color="#090612"/>
      <stop offset="0.48" stop-color="#02040D"/>
      <stop offset="1" stop-color="#06101D"/>
    </linearGradient>
    <linearGradient id="five" x1="100" y1="120" x2="504" y2="596" gradientUnits="userSpaceOnUse">
      <stop stop-color="#FFF9EA"/>
      <stop offset="0.22" stop-color="#FFDCA0"/>
      <stop offset="0.51" stop-color="#FF7A15"/>
      <stop offset="0.74" stop-color="#FF1D7B"/>
      <stop offset="1" stop-color="#66FBFF"/>
    </linearGradient>
    <linearGradient id="orange" x1="0" y1="0" x2="1" y2="1">
      <stop stop-color="#FFF1C9"/>
      <stop offset="0.32" stop-color="#FF9A25"/>
      <stop offset="1" stop-color="#FF3F00"/>
    </linearGradient>
    <linearGradient id="cyan" x1="0" y1="0" x2="1" y2="1">
      <stop stop-color="#F4FFFF"/>
      <stop offset="1" stop-color="#00EEFF"/>
    </linearGradient>
    <linearGradient id="hotline" x1="0" y1="0" x2="1" y2="0">
      <stop stop-color="#FF6507"/>
      <stop offset="0.5" stop-color="#FF14BE"/>
      <stop offset="1" stop-color="#00F0FF"/>
    </linearGradient>
    <filter id="five-glow" x="-42%" y="-42%" width="184%" height="184%" color-interpolation-filters="sRGB">
      <feDropShadow dx="0" dy="24" stdDeviation="22" flood-color="#01020A" flood-opacity="0.95"/>
      <feDropShadow dx="0" dy="0" stdDeviation="22" flood-color="#FF5D00" flood-opacity="0.58"/>
      <feDropShadow dx="0" dy="0" stdDeviation="14" flood-color="#00ECFF" flood-opacity="0.34"/>
    </filter>
    <filter id="line-glow" x="-60%" y="-60%" width="220%" height="220%" color-interpolation-filters="sRGB">
      <feDropShadow dx="0" dy="0" stdDeviation="13" flood-color="#FF6507" flood-opacity="0.62"/>
      <feDropShadow dx="0" dy="0" stdDeviation="10" flood-color="#00EEFF" flood-opacity="0.42"/>
    </filter>
    <pattern id="grid" width="54" height="54" patternUnits="userSpaceOnUse">
      <path d="M54 0H0V54" stroke="white" stroke-opacity="0.04"/>
    </pattern>
  </defs>

  <rect width="1860" height="980" rx="40" fill="url(#page)"/>
  <rect width="1860" height="980" rx="40" fill="url(#grid)"/>
  <path d="M-40 722L824 -34" stroke="#FF690D" stroke-opacity="0.14" stroke-width="3"/>
  <path d="M570 1016L1270 -28" stroke="#00EEFF" stroke-opacity="0.13" stroke-width="3"/>
  <path d="M1230 1016L1912 252" stroke="#FF17BA" stroke-opacity="0.12" stroke-width="3"/>

  <text x="82" y="108" fill="#FFF6DF" font-family="Inter, Arial, sans-serif" font-size="58" font-weight="900">N5 - feuille blanche</text>
  <text x="84" y="154" fill="#9AA8C6" font-family="Inter, Arial, sans-serif" font-size="25" font-weight="700">Sans carré, sans badge. Trois marks libres où le 5 mène vraiment.</text>

  <path d="M620 214V898" stroke="white" stroke-opacity="0.08"/>
  <path d="M1240 214V898" stroke="white" stroke-opacity="0.08"/>

  <g transform="translate(56 232)">
    <text x="26" y="34" fill="#FFBE76" font-family="Inter, Arial, sans-serif" font-size="19" font-weight="900">01</text>
    <text x="76" y="34" fill="#FFF8E7" font-family="Inter, Arial, sans-serif" font-size="30" font-weight="900">Volt Five</text>
    <text x="26" y="72" fill="#94A2C1" font-family="Inter, Arial, sans-serif" font-size="17" font-weight="700">Un 5 impact. Le N est une impulsion.</text>
    <g transform="translate(6 104)" filter="url(#five-glow)">
      <text x="114" y="480" fill="url(#five)" font-family="Arial Black, Inter, Arial, sans-serif" font-size="560" font-weight="900" transform="skewX(-12)">5</text>
      <path d="M96 192H208L126 284H246L148 405" stroke="url(#cyan)" stroke-width="28" stroke-linecap="square" stroke-linejoin="miter"/>
      <path d="M54 458L306 376L516 410" stroke="url(#hotline)" stroke-width="22" stroke-linecap="square" filter="url(#line-glow)"/>
      <path d="M120 452L270 404" stroke="#FFF4CC" stroke-width="12" stroke-linecap="square"/>
      <text x="96" y="356" fill="#FFF6D5" font-family="Arial Black, Inter, Arial, sans-serif" font-size="176" font-weight="900" transform="skewX(-12)">N</text>
    </g>
  </g>

  <g transform="translate(674 232)">
    <text x="26" y="34" fill="#9AFBFF" font-family="Inter, Arial, sans-serif" font-size="19" font-weight="900">02</text>
    <text x="76" y="34" fill="#FFF8E7" font-family="Inter, Arial, sans-serif" font-size="30" font-weight="900">Fuse N5</text>
    <text x="26" y="72" fill="#94A2C1" font-family="Inter, Arial, sans-serif" font-size="17" font-weight="700">Le N lance le chiffre. Plus monogramme.</text>
    <g transform="translate(20 120)" filter="url(#five-glow)">
      <path d="M80 360V96L196 272L300 96V360" stroke="url(#cyan)" stroke-width="38" stroke-linecap="square" stroke-linejoin="miter"/>
      <path d="M286 96H500L468 168H360L348 232H450L512 292L482 398L400 448H246" stroke="url(#five)" stroke-width="58" stroke-linecap="square" stroke-linejoin="miter"/>
      <path d="M46 410L274 346L514 374" stroke="url(#hotline)" stroke-width="20" stroke-linecap="square" filter="url(#line-glow)"/>
      <path d="M332 54L500 54" stroke="url(#orange)" stroke-width="14" stroke-linecap="square"/>
      <path d="M232 446H420" stroke="#FFF3CC" stroke-width="10" stroke-linecap="square" stroke-opacity="0.72"/>
    </g>
  </g>

  <g transform="translate(1294 232)">
    <text x="26" y="34" fill="#FF8BD6" font-family="Inter, Arial, sans-serif" font-size="19" font-weight="900">03</text>
    <text x="76" y="34" fill="#FFF8E7" font-family="Inter, Arial, sans-serif" font-size="30" font-weight="900">Five Runner</text>
    <text x="26" y="72" fill="#94A2C1" font-family="Inter, Arial, sans-serif" font-size="17" font-weight="700">Plus sprint. Le 5 file devant le N.</text>
    <g transform="translate(0 118)" filter="url(#five-glow)">
      <path d="M56 168H282" stroke="url(#hotline)" stroke-width="18" stroke-linecap="square" filter="url(#line-glow)"/>
      <path d="M18 244H256" stroke="#00EEFF" stroke-width="13" stroke-linecap="square"/>
      <text x="98" y="390" fill="#FFF6D6" font-family="Arial Black, Inter, Arial, sans-serif" font-size="232" font-weight="900" transform="skewX(-15)">N</text>
      <text x="214" y="470" fill="url(#five)" font-family="Arial Black, Inter, Arial, sans-serif" font-size="520" font-weight="900" transform="skewX(-15)">5</text>
      <path d="M102 474L326 396L520 426" stroke="#FF5B05" stroke-width="23" stroke-linecap="square"/>
      <path d="M354 38L526 38L448 132H544L386 322L428 176H312L354 38Z" fill="url(#orange)"/>
    </g>
  </g>
</svg>
