<svg width="512" height="512" viewBox="0 0 512 512" fill="none" xmlns="http://www.w3.org/2000/svg">
  <defs>
    <linearGradient id="nxt5-shell" x1="70" y1="66" x2="447" y2="444" gradientUnits="userSpaceOnUse">
      <stop stop-color="#FFF5D8"/>
      <stop offset="0.18" stop-color="#FF8A13"/>
      <stop offset="0.53" stop-color="#FF3D00"/>
      <stop offset="0.78" stop-color="#F000FF"/>
      <stop offset="1" stop-color="#00F0FF"/>
    </linearGradient>
    <linearGradient id="nxt5-type" x1="139" y1="148" x2="364" y2="366" gradientUnits="userSpaceOnUse">
      <stop stop-color="#FFFFFF"/>
      <stop offset="0.42" stop-color="#FFE2A1"/>
      <stop offset="1" stop-color="#7AFCFF"/>
    </linearGradient>
    <linearGradient id="nxt5-core" x1="122" y1="122" x2="392" y2="392" gradientUnits="userSpaceOnUse">
      <stop stop-color="#141C38"/>
      <stop offset="0.56" stop-color="#070A19"/>
      <stop offset="1" stop-color="#02030B"/>
    </linearGradient>
    <filter id="nxt5-glow" x="-28%" y="-28%" width="156%" height="156%" color-interpolation-filters="sRGB">
      <feDropShadow dx="0" dy="22" stdDeviation="18" flood-color="#02030A" flood-opacity="0.72"/>
      <feDropShadow dx="0" dy="0" stdDeviation="20" flood-color="#FF5E00" flood-opacity="0.62"/>
      <feDropShadow dx="0" dy="0" stdDeviation="14" flood-color="#00EFFF" flood-opacity="0.54"/>
    </filter>
  </defs>
  <path d="M88 72H339L453 182L414 424H165L61 320L88 72Z" fill="url(#nxt5-shell)" filter="url(#nxt5-glow)"/>
  <path d="M121 111H322L407 194L378 383H180L105 304L121 111Z" fill="url(#nxt5-core)"/>
  <path d="M104 330L255 284L442 307" stroke="#FF650E" stroke-width="20" stroke-linecap="square"/>
  <path d="M122 371L277 326L382 338" stroke="#00ECFF" stroke-width="10" stroke-linecap="square"/>
  <path d="M85 190H133L111 235H184L142 308H202" stroke="#FFF0C9" stroke-width="10" stroke-linecap="square" stroke-linejoin="miter" stroke-opacity="0.9"/>
  <path d="M355 85L438 85L398 143H456L367 246L388 166H334L355 85Z" fill="#FFF6D4"/>
  <g transform="skewX(-10)">
    <text x="286" y="329" text-anchor="middle"
      font-family="Arial Black, Inter, Arial, sans-serif"
      font-size="178" font-weight="900"
      fill="url(#nxt5-type)">N5</text>
  </g>
  <path d="M154 210L344 170" stroke="#FFFFFF" stroke-width="7" stroke-linecap="square" stroke-opacity="0.18"/>
</svg>
