<svg width="512" height="512" viewBox="0 0 512 512" fill="none" xmlns="http://www.w3.org/2000/svg">
  <defs>
    <linearGradient id="rb-flare" x1="78" y1="103" x2="438" y2="397" gradientUnits="userSpaceOnUse">
      <stop stop-color="#FFF7ED"/>
      <stop offset="0.18" stop-color="#FDBA74"/>
      <stop offset="0.48" stop-color="#F97316"/>
      <stop offset="0.76" stop-color="#E879F9"/>
      <stop offset="1" stop-color="#22D3EE"/>
    </linearGradient>
    <linearGradient id="rb-ink" x1="151" y1="145" x2="353" y2="364" gradientUnits="userSpaceOnUse">
      <stop stop-color="#FFFFFF"/>
      <stop offset="0.58" stop-color="#FFE7C2"/>
      <stop offset="1" stop-color="#7DEBFF"/>
    </linearGradient>
    <linearGradient id="rb-cut" x1="114" y1="329" x2="402" y2="173" gradientUnits="userSpaceOnUse">
      <stop stop-color="#22D3EE"/>
      <stop offset="0.5" stop-color="#FB923C"/>
      <stop offset="1" stop-color="#FFFFFF"/>
    </linearGradient>
    <radialGradient id="rb-core" cx="0" cy="0" r="1" gradientUnits="userSpaceOnUse" gradientTransform="translate(252 230) rotate(82) scale(218 229)">
      <stop stop-color="#172033"/>
      <stop offset="0.7" stop-color="#070B16"/>
      <stop offset="1" stop-color="#03050D"/>
    </radialGradient>
    <filter id="rb-glow" x="-28%" y="-28%" width="156%" height="156%" color-interpolation-filters="sRGB">
      <feDropShadow dx="0" dy="22" stdDeviation="24" flood-color="#020617" flood-opacity="0.56"/>
      <feDropShadow dx="0" dy="0" stdDeviation="24" flood-color="#F97316" flood-opacity="0.5"/>
      <feDropShadow dx="0" dy="0" stdDeviation="12" flood-color="#22D3EE" flood-opacity="0.28"/>
    </filter>
  </defs>

  <rect width="512" height="512" rx="116" fill="#050711"/>
  <path d="M68 291C51 217 83 137 150 91C217 45 310 40 374 86C438 132 467 220 442 293C418 365 342 419 259 418C176 417 85 365 68 291Z" fill="url(#rb-flare)" filter="url(#rb-glow)"/>
  <path d="M96 284C82 223 109 156 164 119C221 81 298 77 351 115C404 153 428 225 408 286C388 347 325 391 256 390C188 390 110 345 96 284Z" fill="url(#rb-core)"/>
  <path d="M109 191C144 125 219 95 291 105C352 113 394 151 411 202" stroke="#FFF7ED" stroke-width="13" stroke-linecap="round" stroke-opacity="0.34"/>
  <path d="M93 313C146 360 212 379 282 364C338 352 384 318 410 269" stroke="#22D3EE" stroke-width="13" stroke-linecap="round" stroke-opacity="0.22"/>
  <path d="M78 334C144 356 212 340 268 301C322 263 370 244 441 260" stroke="url(#rb-cut)" stroke-width="18" stroke-linecap="round" stroke-opacity="0.82"/>
  <path d="M104 360C161 381 216 379 276 348" stroke="#FB923C" stroke-width="8" stroke-linecap="round" stroke-opacity="0.7"/>
  <path d="M384 111L427 96L407 138L451 143L411 166L430 205L391 182L364 220L365 174L322 158L365 145L384 111Z" fill="#FFF7ED" fill-opacity="0.92"/>

  <g transform="skewX(-10)">
    <text x="297" y="319" text-anchor="middle"
      font-family="Arial Black, Arial Rounded MT Bold, Nunito, Inter, Arial, sans-serif"
      font-size="170" font-weight="900" letter-spacing="-20"
      fill="url(#rb-ink)">RB</text>
  </g>
  <path d="M174 219C209 188 261 180 313 198" stroke="#FFFFFF" stroke-width="8" stroke-linecap="round" stroke-opacity="0.16"/>
  <path d="M159 335C200 350 252 349 302 323" stroke="#FDBA74" stroke-width="8" stroke-linecap="round" stroke-opacity="0.72"/>
</svg>
