<svg width="512" height="512" viewBox="0 0 512 512" fill="none" xmlns="http://www.w3.org/2000/svg">
  <defs>
    <linearGradient id="rb-bg" x1="58" y1="49" x2="454" y2="463" gradientUnits="userSpaceOnUse">
      <stop stop-color="#20F0FF"/>
      <stop offset="0.52" stop-color="#7B5CFF"/>
      <stop offset="1" stop-color="#D946EF"/>
    </linearGradient>
    <linearGradient id="rb-text" x1="118" y1="154" x2="405" y2="357" gradientUnits="userSpaceOnUse">
      <stop stop-color="#FFFFFF"/>
      <stop offset="0.46" stop-color="#DFFBFF"/>
      <stop offset="1" stop-color="#7DEBFF"/>
    </linearGradient>
    <filter id="rb-glow" x="-20%" y="-20%" width="140%" height="140%" color-interpolation-filters="sRGB">
      <feDropShadow dx="0" dy="0" stdDeviation="18" flood-color="#22D3EE" flood-opacity="0.45"/>
      <feDropShadow dx="0" dy="18" stdDeviation="24" flood-color="#000000" flood-opacity="0.35"/>
    </filter>
  </defs>

  <rect x="42" y="42" width="428" height="428" rx="116" fill="#07101F"/>
  <rect x="58" y="58" width="396" height="396" rx="102" fill="url(#rb-bg)" filter="url(#rb-glow)"/>
  <rect x="78" y="78" width="356" height="356" rx="88" fill="#08111F" fill-opacity="0.76"/>
  <path d="M99 143C137 95 194 78 256 78C322 78 381 103 413 153" stroke="white" stroke-opacity="0.22" stroke-width="8" stroke-linecap="round"/>
  <path d="M91 369C128 416 189 439 256 439C327 439 388 410 421 360" stroke="#22D3EE" stroke-opacity="0.20" stroke-width="8" stroke-linecap="round"/>

  <text x="256" y="313" text-anchor="middle"
        font-family="Arial Black, Montserrat, Inter, Arial, sans-serif"
        font-size="168" font-weight="900" letter-spacing="-18"
        fill="url(#rb-text)">RB</text>

  <path d="M147 348H365" stroke="#22D3EE" stroke-width="10" stroke-linecap="round" stroke-opacity="0.9"/>
  <circle cx="146" cy="348" r="15" fill="#2FFFE0"/>
  <circle cx="366" cy="348" r="15" fill="#9B5CFF"/>
</svg>
