<svg width="1040" height="320" viewBox="0 0 1040 320" fill="none" xmlns="http://www.w3.org/2000/svg">
  <defs>
    <linearGradient id="rb-flare" x1="45" y1="62" x2="292" y2="266" gradientUnits="userSpaceOnUse">
      <stop stop-color="#FFF7ED"/>
      <stop offset="0.18" stop-color="#FDBA74"/>
      <stop offset="0.48" stop-color="#F97316"/>
      <stop offset="0.76" stop-color="#E879F9"/>
      <stop offset="1" stop-color="#22D3EE"/>
    </linearGradient>
    <linearGradient id="rb-ink" x1="96" y1="90" x2="232" y2="238" gradientUnits="userSpaceOnUse">
      <stop stop-color="#FFFFFF"/>
      <stop offset="0.58" stop-color="#FFE7C2"/>
      <stop offset="1" stop-color="#7DEBFF"/>
    </linearGradient>
    <linearGradient id="rb-cut" x1="72" y1="210" x2="276" y2="109" gradientUnits="userSpaceOnUse">
      <stop stop-color="#22D3EE"/>
      <stop offset="0.5" stop-color="#FB923C"/>
      <stop offset="1" stop-color="#FFFFFF"/>
    </linearGradient>
    <linearGradient id="rb-word" x1="335" y1="91" x2="807" y2="203" gradientUnits="userSpaceOnUse">
      <stop stop-color="#FFFFFF"/>
      <stop offset="0.44" stop-color="#FFE7C2"/>
      <stop offset="0.72" stop-color="#FB923C"/>
      <stop offset="1" stop-color="#7DEBFF"/>
    </linearGradient>
    <radialGradient id="rb-core" cx="0" cy="0" r="1" gradientUnits="userSpaceOnUse" gradientTransform="translate(160 143) rotate(82) scale(146 151)">
      <stop stop-color="#172033"/>
      <stop offset="0.7" stop-color="#070B16"/>
      <stop offset="1" stop-color="#03050D"/>
    </radialGradient>
    <filter id="rb-glow" x="-28%" y="-28%" width="156%" height="156%" color-interpolation-filters="sRGB">
      <feDropShadow dx="0" dy="16" stdDeviation="18" flood-color="#020617" flood-opacity="0.56"/>
      <feDropShadow dx="0" dy="0" stdDeviation="18" flood-color="#F97316" flood-opacity="0.5"/>
      <feDropShadow dx="0" dy="0" stdDeviation="9" flood-color="#22D3EE" flood-opacity="0.28"/>
    </filter>
  </defs>

  <path d="M43 184C32 137 53 86 96 57C139 27 199 24 240 54C281 84 300 140 284 187C268 234 219 269 166 268C112 267 54 233 43 184Z" fill="url(#rb-flare)" filter="url(#rb-glow)"/>
  <path d="M61 180C52 140 70 98 105 74C142 49 192 47 226 72C260 97 276 143 263 183C250 222 209 250 165 250C121 249 70 219 61 180Z" fill="url(#rb-core)"/>
  <path d="M69 118C92 75 140 56 186 62C226 68 253 92 264 125" stroke="#FFF7ED" stroke-width="8" stroke-linecap="round" stroke-opacity="0.34"/>
  <path d="M59 199C93 230 136 242 181 233C217 225 247 204 264 172" stroke="#22D3EE" stroke-width="8" stroke-linecap="round" stroke-opacity="0.22"/>
  <path d="M49 213C92 227 136 217 172 192C207 168 238 156 284 166" stroke="url(#rb-cut)" stroke-width="11" stroke-linecap="round" stroke-opacity="0.82"/>
  <path d="M67 230C104 244 140 243 178 223" stroke="#FB923C" stroke-width="5" stroke-linecap="round" stroke-opacity="0.7"/>
  <path d="M247 69L274 59L262 86L290 89L265 103L277 128L252 114L235 139L236 109L208 99L236 91L247 69Z" fill="#FFF7ED" fill-opacity="0.92"/>

  <g transform="skewX(-10)">
    <text x="188" y="205" text-anchor="middle"
      font-family="Arial Black, Arial Rounded MT Bold, Nunito, Inter, Arial, sans-serif"
      font-size="108" font-weight="900" letter-spacing="-13"
      fill="url(#rb-ink)">RB</text>
  </g>
  <path d="M110 139C133 119 166 114 199 126" stroke="#FFFFFF" stroke-width="5" stroke-linecap="round" stroke-opacity="0.16"/>
  <path d="M100 216C126 226 160 225 192 208" stroke="#FDBA74" stroke-width="5" stroke-linecap="round" stroke-opacity="0.72"/>

  <text x="336" y="192"
    font-family="Arial Black, Arial Rounded MT Bold, Nunito, Inter, Arial, sans-serif"
    font-size="88" font-weight="900" letter-spacing="-5"
    fill="url(#rb-word)">RiftBoard</text>
  <path d="M347 216C461 233 579 231 706 210" stroke="#FB923C" stroke-width="7" stroke-linecap="round" stroke-opacity="0.52"/>
  <path d="M710 210C756 201 796 191 837 176" stroke="#22D3EE" stroke-width="7" stroke-linecap="round" stroke-opacity="0.46"/>
</svg>
