<svg width="512" height="512" viewBox="0 0 512 512" fill="none" xmlns="http://www.w3.org/2000/svg">
  <defs>
    <radialGradient id="rb-orb" cx="0" cy="0" r="1" gradientUnits="userSpaceOnUse" gradientTransform="translate(177 121) rotate(49) scale(391 376)">
      <stop stop-color="#57FFF0"/>
      <stop offset="0.45" stop-color="#5D8CFF"/>
      <stop offset="1" stop-color="#C85CFF"/>
    </radialGradient>
    <linearGradient id="rb-ink" x1="140" y1="133" x2="364" y2="377" gradientUnits="userSpaceOnUse">
      <stop stop-color="#FFFFFF"/>
      <stop offset="0.56" stop-color="#E9FCFF"/>
      <stop offset="1" stop-color="#9AF3FF"/>
    </linearGradient>
    <filter id="rb-soft-shadow" x="-20%" y="-20%" width="140%" height="140%" color-interpolation-filters="sRGB">
      <feDropShadow dx="0" dy="20" stdDeviation="28" flood-color="#020617" flood-opacity="0.45"/>
      <feDropShadow dx="0" dy="0" stdDeviation="18" flood-color="#22D3EE" flood-opacity="0.32"/>
    </filter>
  </defs>

  <path d="M256 42C326 42 404 70 441 132C479 196 467 286 428 353C389 420 321 466 249 462C177 458 107 420 72 356C37 292 36 211 73 146C111 80 184 42 256 42Z" fill="#07101F"/>
  <path d="M256 62C321 61 390 88 421 145C454 204 442 282 407 339C373 396 313 435 249 432C184 429 124 396 93 340C62 284 63 214 97 157C131 100 190 63 256 62Z" fill="url(#rb-orb)" filter="url(#rb-soft-shadow)"/>
  <path d="M257 91C310 91 365 114 391 160C417 207 407 271 379 318C351 365 304 397 251 395C198 393 149 366 124 319C99 272 101 216 128 169C156 121 204 91 257 91Z" fill="#07101F" fill-opacity="0.76"/>
  <path d="M132 167C165 124 211 108 259 108C310 108 354 128 381 166" stroke="white" stroke-opacity="0.18" stroke-width="10" stroke-linecap="round"/>
  <path d="M121 337C154 375 200 395 253 396C310 397 356 371 387 329" stroke="#7DEBFF" stroke-opacity="0.16" stroke-width="10" stroke-linecap="round"/>

  <text x="256" y="316" text-anchor="middle"
        font-family="Arial Rounded MT Bold, Nunito, Inter, Arial, sans-serif"
        font-size="166" font-weight="900" letter-spacing="-17"
        fill="url(#rb-ink)">RB</text>

  <path d="M161 337C198 354 236 363 277 361C310 360 339 352 367 337" stroke="#BDFBFF" stroke-width="9" stroke-linecap="round" stroke-opacity="0.72"/>
</svg>
