<svg width="1040" height="320" viewBox="0 0 1040 320" fill="none" xmlns="http://www.w3.org/2000/svg">
  <defs>
    <radialGradient id="rb-orb" cx="0" cy="0" r="1" gradientUnits="userSpaceOnUse" gradientTransform="translate(112 69) rotate(49) scale(244 235)">
      <stop stop-color="#57FFF0"/>
      <stop offset="0.45" stop-color="#5D8CFF"/>
      <stop offset="1" stop-color="#C85CFF"/>
    </radialGradient>
    <linearGradient id="rb-ink" x1="87" y1="84" x2="227" y2="236" gradientUnits="userSpaceOnUse">
      <stop stop-color="#FFFFFF"/>
      <stop offset="0.56" stop-color="#E9FCFF"/>
      <stop offset="1" stop-color="#9AF3FF"/>
    </linearGradient>
    <linearGradient id="rb-word" x1="326" y1="96" x2="778" y2="175" gradientUnits="userSpaceOnUse">
      <stop stop-color="#FFFFFF"/>
      <stop offset="0.55" stop-color="#BDFBFF"/>
      <stop offset="1" stop-color="#76A9FF"/>
    </linearGradient>
    <filter id="rb-soft-shadow" x="-20%" y="-20%" width="140%" height="140%" color-interpolation-filters="sRGB">
      <feDropShadow dx="0" dy="14" stdDeviation="18" flood-color="#020617" flood-opacity="0.45"/>
      <feDropShadow dx="0" dy="0" stdDeviation="12" flood-color="#22D3EE" flood-opacity="0.28"/>
    </filter>
  </defs>

  <path d="M160 27C204 27 253 45 276 84C300 124 292 180 268 222C243 264 201 292 156 289C111 287 67 264 45 224C23 184 22 132 46 91C69 50 115 27 160 27Z" fill="#07101F"/>
  <path d="M160 40C201 39 244 56 263 91C284 128 276 176 254 212C233 248 196 272 156 270C115 268 78 247 58 212C39 177 39 134 61 98C82 63 119 40 160 40Z" fill="url(#rb-orb)" filter="url(#rb-soft-shadow)"/>
  <path d="M161 58C194 58 228 72 244 101C260 130 254 170 236 199C219 228 190 248 157 247C124 246 93 229 78 200C62 170 63 135 80 106C97 76 128 58 161 58Z" fill="#07101F" fill-opacity="0.76"/>
  <path d="M83 106C104 80 132 70 162 70C194 70 222 82 239 106" stroke="white" stroke-opacity="0.18" stroke-width="6" stroke-linecap="round"/>
  <path d="M77 212C97 236 126 247 159 248C194 249 223 232 242 206" stroke="#7DEBFF" stroke-opacity="0.16" stroke-width="6" stroke-linecap="round"/>
  <text x="160" y="198" text-anchor="middle"
        font-family="Arial Rounded MT Bold, Nunito, Inter, Arial, sans-serif"
        font-size="104" font-weight="900" letter-spacing="-11"
        fill="url(#rb-ink)">RB</text>
  <path d="M101 212C124 222 148 228 174 226C194 225 213 220 230 211" stroke="#BDFBFF" stroke-width="6" stroke-linecap="round" stroke-opacity="0.72"/>

  <text x="325" y="185"
        font-family="Arial Rounded MT Bold, Nunito, Inter, Arial, sans-serif"
        font-size="88" font-weight="900" letter-spacing="-4"
        fill="url(#rb-word)">RiftBoard</text>
</svg>
